<svg id="outlines" xmlns="http://www.w3.org/2000/svg" viewBox="0 0 481.14 206.7"><defs><style>.cls-1{fill:#231f20;}.cls-2{fill:#fff;}.cls-3{fill:#733ca6;}.cls-4{fill:#fffefe;}.cls-5{fill:#fffdfd;}.cls-6{fill:#fffcfc;}.cls-7{fill:#fffbfb;}.cls-8{fill:snow;}.cls-9{fill:#fff9f9;}.cls-10{fill:#fef8f8;}.cls-11{fill:#fef7f7;}.cls-12{fill:#fef6f6;}.cls-13{fill:#fef6f5;}.cls-14{fill:#fef5f4;}.cls-15{fill:#fef4f3;}.cls-16{fill:#fef3f2;}.cls-17{fill:#fef2f1;}.cls-18{fill:#fef1f0;}.cls-19{fill:#fef0ef;}.cls-20{fill:#feefee;}.cls-21{fill:#feeeed;}.cls-22{fill:#feedec;}.cls-23{fill:#feeceb;}.cls-24{fill:#fdebea;}.cls-25{fill:#fdeae9;}.cls-26{fill:#fde9e8;}.cls-27{fill:#fde8e7;}.cls-28{fill:#fde7e6;}.cls-29{fill:#fde6e5;}.cls-30{fill:#fde5e4;}.cls-31{fill:#fde4e3;}.cls-32{fill:#fde3e2;}.cls-33{fill:#fde3e1;}.cls-34{fill:#fde2e0;}.cls-35{fill:#fde1df;}.cls-36{fill:#fde0de;}.cls-37{fill:#fddfdd;}.cls-38{fill:#fcdedc;}.cls-39{fill:#fcdddb;}.cls-40{fill:#fcdcda;}.cls-41{fill:#fcdbd9;}.cls-42{fill:#fcdad8;}.cls-43{fill:#fcd9d7;}.cls-44{fill:#fcd8d6;}.cls-45{fill:#fcd7d5;}.cls-46{fill:#fcd6d4;}.cls-47{fill:#fcd5d3;}.cls-48{fill:#fcd4d2;}.cls-49{fill:#fcd3d1;}.cls-50{fill:#fcd2d0;}.cls-51{fill:#fbd1cf;}.cls-52{fill:#fbd0ce;}.cls-53{fill:#fbd0cd;}.cls-54{fill:#fbcfcc;}.cls-55{fill:#fbcecb;}.cls-56{fill:#fbcdca;}.cls-57{fill:#fbccc9;}.cls-58{fill:#fbcbc8;}.cls-59{fill:#fbcac7;}.cls-60{fill:#fbc9c6;}.cls-61{fill:#fbc8c5;}.cls-62{fill:#fbc7c4;}.cls-63{fill:#fbc6c3;}.cls-64{fill:#fbc5c2;}.cls-65{fill:#fac4c1;}.cls-66{fill:#fac3c0;}.cls-67{fill:#fac2bf;}.cls-68{fill:#fac1be;}.cls-69{fill:#fac0bd;}.cls-70{fill:#fabfbc;}.cls-71{fill:#fabebb;}.cls-72{fill:#fabdba;}.cls-73{fill:#fabdb9;}.cls-74{fill:#fabcb8;}.cls-75{fill:#fabbb7;}.cls-76{fill:#fabab6;}.cls-77{fill:#fab9b5;}.cls-78{fill:#fab8b4;}.cls-79{fill:#f9b7b3;}.cls-80{fill:#f9b6b2;}.cls-81{fill:#f9b5b1;}.cls-82{fill:#f9b4b0;}.cls-83{fill:#f9b3af;}.cls-84{fill:#f9b2ae;}.cls-85{fill:#f9b1ad;}.cls-86{fill:#f9b0ac;}.cls-87{fill:#f9afab;}.cls-88{fill:#f9aeaa;}.cls-89{fill:#f9ada9;}.cls-90{fill:#f9aca8;}.cls-91{fill:#f9aba7;}.cls-92{fill:#f9aba6;}.cls-93{fill:#f8aaa5;}.cls-94{fill:#f8a9a4;}.cls-95{fill:#f8a8a3;}.cls-96{fill:#f8a7a2;}.cls-97{fill:#f8a6a1;}.cls-98{fill:#f8a5a0;}.cls-99{fill:#f8a49f;}.cls-100{fill:#f8a39e;}.cls-101{fill:#f8a29d;}.cls-102{fill:#f8a19c;}.cls-103{fill:#f8a09b;}.cls-104{fill:#f89f9a;}.cls-105{fill:#f89e99;}.cls-106{fill:#f79d98;}.cls-107{fill:#f79c97;}.cls-108{fill:#f79b96;}.cls-109{fill:#f79a95;}.cls-110{fill:#f79994;}.cls-111{fill:#f79893;}.cls-112{fill:#f79892;}.cls-113{fill:#f79791;}.cls-114{fill:#f79690;}.cls-115{fill:#f7958f;}.cls-116{fill:#f7948e;}.cls-117{fill:#f7938d;}.cls-118{fill:#f7928c;}.cls-119{fill:#f7918b;}.cls-120{fill:#f6908a;}.cls-121{fill:#f68f89;}.cls-122{fill:#f68e88;}.cls-123{fill:#f68d87;}.cls-124{fill:#f68c86;}.cls-125{fill:#f68b85;}.cls-126{fill:#f68a84;}.cls-127{fill:#f68983;}.cls-128{fill:#f68882;}.cls-129{fill:#f68781;}.cls-130{fill:#f68680;}.cls-131{fill:#f6857f;}.cls-132{fill:#f6857e;}.cls-133{fill:#f6847d;}.cls-134{fill:#f5837c;}.cls-135{fill:#f5827b;}.cls-136{fill:#f5817a;}.cls-137{fill:#f58079;}.cls-138{fill:#f57f78;}.cls-139{fill:#f57e77;}.cls-140{fill:#f57d76;}.cls-141{fill:#f57c75;}.cls-142{fill:#f57b74;}.cls-143{fill:#f57a73;}.cls-144{fill:#f57972;}.cls-145{fill:#f57871;}.cls-146{fill:#f57770;}.cls-147{fill:#f4766f;}.cls-148{fill:#f4756e;}.cls-149{fill:#f4746d;}.cls-150{fill:#f4736c;}.cls-151{fill:#f4726b;}.cls-152{fill:#f4726a;}.cls-153{fill:#f47169;}.cls-154{fill:#f47068;}.cls-155{fill:#f46f67;}.cls-156{fill:#f46e66;}.cls-157{fill:#f46d65;}.cls-158{fill:#f46c64;}.cls-159{fill:#f46b63;}.cls-160{fill:#f46a62;}.cls-161{fill:#f36961;}.cls-162{fill:#f36860;}.cls-163{fill:#f3675f;}.cls-164{fill:#f3665e;}.cls-165{fill:#f3655d;}.cls-166{fill:#f3645c;}.cls-167{fill:#f3635b;}.cls-168{fill:#f3625a;}.cls-169{fill:#f36159;}.cls-170{fill:#f36058;}.cls-171{fill:#f35f57;}.cls-172{fill:#f35f56;}.cls-173{fill:#f35e55;}.cls-174{fill:#f35d54;}.cls-175{fill:#f25c53;}.cls-176{fill:#f25b52;}.cls-177{fill:#f25a51;}.cls-178{fill:#f25950;}.cls-179{fill:#f2584f;}.cls-180{fill:#f2574e;}.cls-181{fill:#f2564d;}</style></defs><title>oss</title><path class="cls-1" d="M164.37,117.53h-4.68L156.06,103H156l-3.57,14.58h-4.77L142,96.11h4.71l3.39,14.58h.06l3.72-14.58h4.41l3.66,14.76H162l3.51-14.76h4.62Z"/><path class="cls-1" d="M173.88,110.81a4.34,4.34,0,0,0,1.05,3,4.36,4.36,0,0,0,5,.3,2.68,2.68,0,0,0,1.14-1.37h3.75a7.26,7.26,0,0,1-2.76,4,8,8,0,0,1-4.5,1.23,8.66,8.66,0,0,1-3.3-.6,7,7,0,0,1-2.49-1.68,7.5,7.5,0,0,1-1.58-2.58,9.44,9.44,0,0,1-.55-3.3,9,9,0,0,1,.57-3.24,7.55,7.55,0,0,1,4.12-4.32,8.06,8.06,0,0,1,3.23-.63,7.38,7.38,0,0,1,3.45.77,6.86,6.86,0,0,1,2.41,2,8.45,8.45,0,0,1,1.37,2.94,11,11,0,0,1,.3,3.45Zm6.93-2.7a4.93,4.93,0,0,0-1.07-2.46,3,3,0,0,0-2.32-.84,3.73,3.73,0,0,0-1.7.35,3.22,3.22,0,0,0-1.08.85,3.13,3.13,0,0,0-.57,1.08,4.85,4.85,0,0,0-.19,1Z"/><path class="cls-1" d="M187.23,96.11h4.26v7.8h.06a4.52,4.52,0,0,1,2.11-1.75,7.19,7.19,0,0,1,2.78-.56,5.89,5.89,0,0,1,4.36,2,7.55,7.55,0,0,1,1.49,2.54,12.13,12.13,0,0,1,0,7.35A7.7,7.7,0,0,1,200.8,116a5.8,5.8,0,0,1-2.05,1.48,5.9,5.9,0,0,1-2.31.48,8,8,0,0,1-3.06-.55,4,4,0,0,1-2-1.85h-.06v2h-4.05Zm11.37,13.68a8.29,8.29,0,0,0-.21-1.89,4.94,4.94,0,0,0-.66-1.59,3.39,3.39,0,0,0-1.14-1.09,3.45,3.45,0,0,0-3.26,0,3.43,3.43,0,0,0-1.12,1.09,4.94,4.94,0,0,0-.66,1.59,8.29,8.29,0,0,0-.21,1.89,8.16,8.16,0,0,0,.21,1.86,4.94,4.94,0,0,0,.66,1.59,3.46,3.46,0,0,0,1.12,1.1,3.52,3.52,0,0,0,3.26,0,3.42,3.42,0,0,0,1.14-1.1,4.94,4.94,0,0,0,.66-1.59A8.16,8.16,0,0,0,198.6,109.79Z"/><path class="cls-1" d="M216.27,115.55h-.06a4.47,4.47,0,0,1-2,1.83,6.41,6.41,0,0,1-2.73.57,6.51,6.51,0,0,1-3.08-.69,6.31,6.31,0,0,1-2.16-1.84,8.33,8.33,0,0,1-1.29-2.66,11.14,11.14,0,0,1-.43-3.12,10.43,10.43,0,0,1,.43-3,7.86,7.86,0,0,1,1.29-2.57,6.32,6.32,0,0,1,5.15-2.46,6.08,6.08,0,0,1,2.62.59,4.57,4.57,0,0,1,2,1.72h.06v-7.8h4.26v21.42h-4Zm-.06-5.82a9.31,9.31,0,0,0-.18-1.83,4.49,4.49,0,0,0-.62-1.57,3.43,3.43,0,0,0-1.14-1.1,3.3,3.3,0,0,0-1.72-.42,3.46,3.46,0,0,0-1.77.42,3.34,3.34,0,0,0-1.16,1.11,4.93,4.93,0,0,0-.63,1.58,8.51,8.51,0,0,0-.19,1.84,7.9,7.9,0,0,0,.21,1.8,4.94,4.94,0,0,0,.67,1.61,3.74,3.74,0,0,0,1.17,1.14,3.18,3.18,0,0,0,1.7.43,3.36,3.36,0,0,0,1.75-.42,3.19,3.19,0,0,0,1.13-1.12,5.07,5.07,0,0,0,.6-1.61A9.46,9.46,0,0,0,216.21,109.73Z"/><path class="cls-1" d="M223.17,102h4.05v2.88h.06a5.21,5.21,0,0,1,.81-1.33,5.31,5.31,0,0,1,1.17-1,5.63,5.63,0,0,1,1.42-.68,5.17,5.17,0,0,1,1.55-.24,2.92,2.92,0,0,1,.93.15v4c-.2,0-.44-.07-.72-.1a7.65,7.65,0,0,0-.81,0,4.54,4.54,0,0,0-2,.39,3.46,3.46,0,0,0-1.31,1.07,4.26,4.26,0,0,0-.7,1.59,8.58,8.58,0,0,0-.21,1.93v7h-4.26Z"/><path class="cls-1" d="M238.86,99.62H234.6V96.11h4.26ZM234.6,102h4.26v15.51H234.6Z"/><path class="cls-1" d="M250.46,117.53h-4.75L240.39,102h4.47l3.27,10.59h.06L251.46,102h4.26Z"/><path class="cls-1" d="M260.61,110.81a4.34,4.34,0,0,0,1.05,3,4.36,4.36,0,0,0,5,.3,2.68,2.68,0,0,0,1.14-1.37h3.75a7.26,7.26,0,0,1-2.76,4,8,8,0,0,1-4.5,1.23,8.66,8.66,0,0,1-3.3-.6,7,7,0,0,1-2.49-1.68,7.5,7.5,0,0,1-1.58-2.58,9.44,9.44,0,0,1-.55-3.3,9,9,0,0,1,.57-3.24,7.55,7.55,0,0,1,4.12-4.32,8.06,8.06,0,0,1,3.23-.63,7.38,7.38,0,0,1,3.45.77,6.86,6.86,0,0,1,2.41,2,8.45,8.45,0,0,1,1.37,2.94,11,11,0,0,1,.3,3.45Zm6.93-2.7a4.93,4.93,0,0,0-1.07-2.46,3,3,0,0,0-2.32-.84,3.73,3.73,0,0,0-1.7.35,3.22,3.22,0,0,0-1.08.85,3.13,3.13,0,0,0-.57,1.08,4.85,4.85,0,0,0-.19,1Z"/><path class="cls-1" d="M274,102H278v2.88h.06a5.21,5.21,0,0,1,.81-1.33,5.31,5.31,0,0,1,1.17-1,5.63,5.63,0,0,1,1.42-.68,5.17,5.17,0,0,1,1.55-.24,2.92,2.92,0,0,1,.93.15v4c-.2,0-.44-.07-.72-.1a7.65,7.65,0,0,0-.81,0,4.54,4.54,0,0,0-2,.39,3.46,3.46,0,0,0-1.31,1.07,4.26,4.26,0,0,0-.7,1.59,8.58,8.58,0,0,0-.21,1.93v7H274Z"/><path class="cls-1" d="M293.7,96.11h6.63l5,14.73h.06l4.74-14.73h6.63v21.42h-4.41V102.35h-.06l-5.25,15.18h-3.63l-5.25-15h-.06v15H293.7Z"/><path class="cls-1" d="M319.92,106.79a5,5,0,0,1,.75-2.49,5.11,5.11,0,0,1,1.68-1.59,7.32,7.32,0,0,1,2.28-.85,13,13,0,0,1,2.58-.26,17.4,17.4,0,0,1,2.37.17,7.25,7.25,0,0,1,2.19.64,4.26,4.26,0,0,1,1.62,1.35A3.74,3.74,0,0,1,334,106v8.07a16.21,16.21,0,0,0,.12,2,3.63,3.63,0,0,0,.42,1.44h-4.32a6.05,6.05,0,0,1-.2-.73,6.48,6.48,0,0,1-.1-.77,5.69,5.69,0,0,1-2.4,1.49,9.32,9.32,0,0,1-2.82.43,7.24,7.24,0,0,1-2.07-.28,5,5,0,0,1-1.68-.86,3.92,3.92,0,0,1-1.13-1.44,4.87,4.87,0,0,1-.4-2.07,4.63,4.63,0,0,1,.45-2.17,3.72,3.72,0,0,1,1.2-1.37,5.53,5.53,0,0,1,1.69-.76,17.56,17.56,0,0,1,1.94-.41q1-.15,1.89-.24a10.85,10.85,0,0,0,1.6-.27,2.89,2.89,0,0,0,1.13-.52,1.24,1.24,0,0,0,.42-1,2.24,2.24,0,0,0-.23-1.09,1.65,1.65,0,0,0-.6-.63,2.36,2.36,0,0,0-.87-.3,7,7,0,0,0-1.06-.08,3.26,3.26,0,0,0-2,.54,2.38,2.38,0,0,0-.85,1.8Zm9.84,3.15a1.94,1.94,0,0,1-.68.38,6.9,6.9,0,0,1-.87.22q-.46.09-1,.15c-.35,0-.68.09-1,.15a6.73,6.73,0,0,0-1,.24,2.87,2.87,0,0,0-.8.41,1.87,1.87,0,0,0-.55.66,2.07,2.07,0,0,0-.21,1,2,2,0,0,0,.21,1,1.64,1.64,0,0,0,.57.6,2.4,2.4,0,0,0,.84.31,5.36,5.36,0,0,0,1,.09,3.77,3.77,0,0,0,1.95-.42,2.8,2.8,0,0,0,1-1,3.23,3.23,0,0,0,.4-1.19,8.34,8.34,0,0,0,.08-1Z"/><path class="cls-1" d="M337,102H341v2.16h.09a5,5,0,0,1,2.1-2,6,6,0,0,1,2.64-.63,7.2,7.2,0,0,1,2.8.47,4.18,4.18,0,0,1,1.73,1.29,5,5,0,0,1,.88,2,12.44,12.44,0,0,1,.26,2.62v9.54h-4.26v-8.76a5.3,5.3,0,0,0-.62-2.86,2.32,2.32,0,0,0-2.11-1,3,3,0,0,0-2.52,1,5.74,5.74,0,0,0-.78,3.4v8.13H337Z"/><path class="cls-1" d="M354.21,106.79a5,5,0,0,1,.75-2.49,5.11,5.11,0,0,1,1.68-1.59,7.32,7.32,0,0,1,2.28-.85,13,13,0,0,1,2.58-.26,17.4,17.4,0,0,1,2.37.17,7.25,7.25,0,0,1,2.19.64,4.26,4.26,0,0,1,1.62,1.35,3.74,3.74,0,0,1,.63,2.25v8.07a16.21,16.21,0,0,0,.12,2,3.63,3.63,0,0,0,.42,1.44h-4.32a6.05,6.05,0,0,1-.2-.73,6.48,6.48,0,0,1-.1-.77,5.69,5.69,0,0,1-2.4,1.49A9.32,9.32,0,0,1,359,118a7.24,7.24,0,0,1-2.07-.28,5,5,0,0,1-1.68-.86,3.92,3.92,0,0,1-1.13-1.44,4.87,4.87,0,0,1-.4-2.07,4.63,4.63,0,0,1,.45-2.17,3.72,3.72,0,0,1,1.2-1.37,5.53,5.53,0,0,1,1.69-.76,17.56,17.56,0,0,1,1.94-.41q1-.15,1.89-.24a10.85,10.85,0,0,0,1.6-.27,2.89,2.89,0,0,0,1.13-.52,1.24,1.24,0,0,0,.42-1,2.24,2.24,0,0,0-.23-1.09,1.65,1.65,0,0,0-.6-.63,2.36,2.36,0,0,0-.87-.3,7,7,0,0,0-1.06-.08,3.26,3.26,0,0,0-2,.54,2.38,2.38,0,0,0-.85,1.8Zm9.84,3.15a1.94,1.94,0,0,1-.68.38,6.9,6.9,0,0,1-.87.22q-.47.09-1,.15c-.35,0-.68.09-1,.15a6.73,6.73,0,0,0-1,.24,2.87,2.87,0,0,0-.8.41,1.87,1.87,0,0,0-.55.66,2.07,2.07,0,0,0-.21,1,2,2,0,0,0,.21,1,1.64,1.64,0,0,0,.57.6,2.4,2.4,0,0,0,.84.31,5.36,5.36,0,0,0,1,.09,3.77,3.77,0,0,0,1.95-.42,2.8,2.8,0,0,0,1-1,3.23,3.23,0,0,0,.4-1.19,8.34,8.34,0,0,0,.08-1Z"/><path class="cls-1" d="M386.16,116.54a10.46,10.46,0,0,1-.11,1.4,6.65,6.65,0,0,1-.4,1.53,6,6,0,0,1-.84,1.47,5.26,5.26,0,0,1-1.44,1.26,7.88,7.88,0,0,1-2.19.88,12.46,12.46,0,0,1-3.06.33,10,10,0,0,1-2.33-.28,7.4,7.4,0,0,1-2.16-.89A5.29,5.29,0,0,1,372,120.7a4.49,4.49,0,0,1-.73-2.27h4.26a2.4,2.4,0,0,0,1.16,1.67,4.19,4.19,0,0,0,2,.46,3.08,3.08,0,0,0,2.6-1.08,4.23,4.23,0,0,0,.81-2.76v-2h-.06a4.24,4.24,0,0,1-2,1.82,6.34,6.34,0,0,1-2.68.58,6.78,6.78,0,0,1-3-.61,5.69,5.69,0,0,1-2.07-1.68,7,7,0,0,1-1.19-2.49,11.84,11.84,0,0,1-.37-3,9.63,9.63,0,0,1,.43-2.89,7.58,7.58,0,0,1,1.28-2.46,6.16,6.16,0,0,1,2.08-1.7,6.28,6.28,0,0,1,2.87-.63,6,6,0,0,1,2.68.57,4.64,4.64,0,0,1,1.94,1.92h.06V102h4.05Zm-7.68-2.67a3.39,3.39,0,0,0,1.59-.36,3.33,3.33,0,0,0,1.14-1,4.22,4.22,0,0,0,.67-1.36,5.7,5.7,0,0,0,.23-1.61,8.86,8.86,0,0,0-.18-1.8,4.53,4.53,0,0,0-.6-1.53,3.09,3.09,0,0,0-1.13-1,3.5,3.5,0,0,0-1.72-.39,3.14,3.14,0,0,0-1.55.36,3.26,3.26,0,0,0-1.08,1,4.11,4.11,0,0,0-.63,1.41,6.92,6.92,0,0,0-.19,1.66,8.51,8.51,0,0,0,.16,1.67,4.47,4.47,0,0,0,.57,1.48,3.34,3.34,0,0,0,1.07,1.08A3,3,0,0,0,378.48,113.87Z"/><path class="cls-1" d="M392.73,110.81a4.34,4.34,0,0,0,1,3,4.36,4.36,0,0,0,5,.3,2.74,2.74,0,0,0,1.14-1.37h3.75a7.26,7.26,0,0,1-2.76,4,8,8,0,0,1-4.5,1.23,8.66,8.66,0,0,1-3.3-.6,7,7,0,0,1-2.49-1.68,7.5,7.5,0,0,1-1.58-2.58,9.44,9.44,0,0,1-.55-3.3,9,9,0,0,1,.57-3.24,7.29,7.29,0,0,1,1.62-2.59,7.62,7.62,0,0,1,2.5-1.73,8,8,0,0,1,3.23-.63,7.38,7.38,0,0,1,3.45.77,6.86,6.86,0,0,1,2.41,2,8.64,8.64,0,0,1,1.37,2.94,11.25,11.25,0,0,1,.3,3.45Zm6.93-2.7a5,5,0,0,0-1.07-2.46,3,3,0,0,0-2.32-.84,3.73,3.73,0,0,0-1.7.35,3.22,3.22,0,0,0-1.08.85,3.13,3.13,0,0,0-.57,1.08,4.28,4.28,0,0,0-.19,1Z"/><path class="cls-1" d="M406.08,102h4.05v2.88h.06a5.21,5.21,0,0,1,.81-1.33,5.31,5.31,0,0,1,1.17-1,5.63,5.63,0,0,1,1.42-.68,5.17,5.17,0,0,1,1.55-.24,2.92,2.92,0,0,1,.93.15v4c-.2,0-.44-.07-.72-.1a7.65,7.65,0,0,0-.81,0,4.54,4.54,0,0,0-2,.39,3.46,3.46,0,0,0-1.31,1.07,4.26,4.26,0,0,0-.7,1.59,8.58,8.58,0,0,0-.21,1.93v7h-4.26Z"/><circle class="cls-2" cx="60.69" cy="107.02" r="50.64"/><circle class="cls-2" cx="60.73" cy="107.06" r="50.5"/><path class="cls-3" d="M60.73,158.81a51.75,51.75,0,1,1,51.75-51.75A51.8,51.8,0,0,1,60.73,158.81Zm0-101A49.25,49.25,0,1,0,110,107.06,49.31,49.31,0,0,0,60.73,57.81Z"/><path class="cls-2" d="M78.34,104.16A17.89,17.89,0,0,0,73,94.07l15.51-16.4A41.86,41.86,0,0,1,96.44,88.1a38.88,38.88,0,0,1,4.18,12.42Z"/><path class="cls-4" d="M78.45,104.72a18,18,0,0,0-1.7-5.53,16.48,16.48,0,0,0-3.35-4.7l16-15.91A38.82,38.82,0,0,1,97,89.25a40.6,40.6,0,0,1,3.81,12.53Z"/><path class="cls-5" d="M78.49,105.29A18.62,18.62,0,0,0,77,99.69a17.68,17.68,0,0,0-3.22-4.79l16.5-15.4a39.79,39.79,0,0,1,7.29,10.9A41.6,41.6,0,0,1,101,103.05Z"/><path class="cls-6" d="M78.53,105.85a17.76,17.76,0,0,0-4.34-10.54l17-14.88a41.69,41.69,0,0,1,6.91,11.15,39.28,39.28,0,0,1,3,12.75Z"/><path class="cls-7" d="M78.59,106.42a18,18,0,0,0-1.17-5.68,16.5,16.5,0,0,0-2.88-5L92,81.41a39.07,39.07,0,0,1,6.56,11.36,40.62,40.62,0,0,1,2.61,12.83Z"/><path class="cls-8" d="M78.58,107a18.73,18.73,0,0,0-1-5.71,17.18,17.18,0,0,0-2.74-5.07L92.77,82.42A40,40,0,0,1,99,94a42,42,0,0,1,2.16,12.91Z"/><path class="cls-9" d="M78.57,107.55a17.75,17.75,0,0,0-3.33-10.91l18.31-13.2a41.36,41.36,0,0,1,5.83,11.75,39.63,39.63,0,0,1,1.76,13Z"/><path class="cls-10" d="M78.57,108.12a17.84,17.84,0,0,0-.63-5.77,16.85,16.85,0,0,0-2.38-5.25L94.28,84.49a39.33,39.33,0,0,1,5.45,11.93,40.25,40.25,0,0,1,1.37,13Z"/><path class="cls-11" d="M78.51,108.68a19.13,19.13,0,0,0-.41-5.79,17.08,17.08,0,0,0-2.25-5.31L95,85.57a39.52,39.52,0,0,1,5.09,12.09,41.8,41.8,0,0,1,.94,13Z"/><path class="cls-12" d="M78.44,109.25a16.86,16.86,0,0,0-.22-5.8,19,19,0,0,0-2.06-5.39l19.49-11.4a41.65,41.65,0,0,1,4.69,12.25,39.84,39.84,0,0,1,.51,13.07Z"/><path class="cls-13" d="M78.39,109.81a17.64,17.64,0,0,0-.08-5.8,17,17,0,0,0-1.87-5.47L96.28,87.78a40.84,40.84,0,0,1,4.42,25.47Z"/><path class="cls-14" d="M78.28,110.37a17.83,17.83,0,0,0-1.6-11.32L96.86,88.92a39.45,39.45,0,0,1,3.91,12.51,41.6,41.6,0,0,1-.3,13.08Z"/><path class="cls-15" d="M78.16,110.92a17.08,17.08,0,0,0,.32-5.79,18.81,18.81,0,0,0-1.54-5.58l20.49-9.48a41.54,41.54,0,0,1,3.5,12.62,39.6,39.6,0,0,1-.72,13.07Z"/><path class="cls-16" d="M78.05,111.47a17.54,17.54,0,0,0,.47-5.78,17.31,17.31,0,0,0-1.35-5.63L98,91.24a40.84,40.84,0,0,1,2,25.77Z"/><path class="cls-17" d="M77.89,112a17.87,17.87,0,0,0-.52-11.42l21-8.16a40.47,40.47,0,0,1,1.17,25.81Z"/><path class="cls-18" d="M77.72,112.55a17.37,17.37,0,0,0,.87-5.73,19,19,0,0,0-1-5.7l21.3-7.49a41.39,41.39,0,0,1,2.29,12.89,39.5,39.5,0,0,1-2,12.94Z"/><path class="cls-19" d="M77.55,113.09a17.24,17.24,0,0,0,1-5.7,17.68,17.68,0,0,0-.81-5.74l21.53-6.81a40.8,40.8,0,0,1-.48,25.84Z"/><path class="cls-20" d="M77.35,113.62a17.88,17.88,0,0,0,.55-11.42l21.73-6.13a40.48,40.48,0,0,1-1.27,25.81Z"/><path class="cls-21" d="M77.12,114.13a16.91,16.91,0,0,0,1.41-5.61,19.07,19.07,0,0,0-.47-5.78L100,97.31a41.47,41.47,0,0,1,1.06,13,39.71,39.71,0,0,1-3.17,12.71Z"/><path class="cls-22" d="M76.91,114.65a17,17,0,0,0,1.55-5.56,17.93,17.93,0,0,0-.26-5.8l22.07-4.74a40.7,40.7,0,0,1,.62,13.07,39.32,39.32,0,0,1-3.55,12.62Z"/><path class="cls-23" d="M76.66,115.16a17.88,17.88,0,0,0,1.63-11.31l22.21-4a40.46,40.46,0,0,1-3.72,25.58Z"/><path class="cls-24" d="M76.38,115.64a17.37,17.37,0,0,0,1.94-5.43,18.8,18.8,0,0,0,.06-5.8l22.33-3.34a41.59,41.59,0,0,1-.16,13.08,40.16,40.16,0,0,1-4.38,12.37Z"/><path class="cls-25" d="M76.11,116.14a16.72,16.72,0,0,0,2.08-5.38,18.15,18.15,0,0,0,.29-5.79l22.42-2.63a40.42,40.42,0,0,1-.62,13.07,39.16,39.16,0,0,1-4.74,12.23Z"/><path class="cls-26" d="M75.83,116.62a17.82,17.82,0,0,0,2.68-11.09L101,103.61a40.42,40.42,0,0,1-6.12,25.12Z"/><path class="cls-27" d="M75.5,117.08a17.31,17.31,0,0,0,2.44-5.22,18.94,18.94,0,0,0,.62-5.76l22.54-1.22a41.77,41.77,0,0,1-1.4,13,40.21,40.21,0,0,1-5.54,11.89Z"/><path class="cls-28" d="M75.18,117.55a16.4,16.4,0,0,0,2.58-5.15,18.22,18.22,0,0,0,.84-5.74l22.57-.5a41,41,0,0,1-1.85,13,39.37,39.37,0,0,1-5.89,11.72Z"/><path class="cls-29" d="M74.86,118a17.9,17.9,0,0,0,3.72-10.78l22.57.21a40.55,40.55,0,0,1-8.47,24.44Z"/><path class="cls-30" d="M74.48,118.44a18.12,18.12,0,0,0,2.94-5,19.2,19.2,0,0,0,1.15-5.67l22.55.91a41.6,41.6,0,0,1-2.62,12.84,40.43,40.43,0,0,1-6.65,11.3Z"/><path class="cls-31" d="M74.11,118.87c.3-.38.67-.72.94-1.12s.54-.8.82-1.19A19.6,19.6,0,0,0,77.19,114a18.52,18.52,0,0,0,1.37-5.61L101.07,110A41,41,0,0,1,98,122.73a41.48,41.48,0,0,1-3,5.85c-.61.91-1.24,1.81-1.87,2.71S91.73,133,91,133.82Z"/><path class="cls-32" d="M73.75,119.31a17.86,17.86,0,0,0,4.73-10.38l22.45,2.33a40.49,40.49,0,0,1-10.74,23.52Z"/><path class="cls-33" d="M73.33,119.7A18.79,18.79,0,0,0,76.74,115a19.35,19.35,0,0,0,1.68-5.53l22.37,3a40,40,0,0,1-11.51,23.15Z"/><path class="cls-34" d="M72.92,120.1l.53-.51.27-.24.23-.29c.31-.38.63-.74,1-1.11s.54-.8.82-1.19l.22-.3.16-.32.35-.63a18.34,18.34,0,0,0,1.89-5.46l22.27,3.75a41.12,41.12,0,0,1-4.28,12.4l-.8,1.44-.41.72-.46.68c-.61.9-1.24,1.81-1.88,2.7s-1.41,1.67-2.12,2.5l-.54.61-.59.58-1.18,1.13Z"/><path class="cls-35" d="M72.51,120.5a18.66,18.66,0,0,0,3.68-4.5c.21-.43.5-.83.68-1.27s.38-.89.58-1.33l.44-1.38.12-.35.07-.35.15-.71,22.13,4.44-.35,1.61-.18.8-.24.79c-.33,1-.65,2.1-1,3.13s-.86,2-1.3,3-1,1.94-1.55,2.91a41.29,41.29,0,0,1-8.29,10.12Z"/><path class="cls-36" d="M72.07,120.85a19.68,19.68,0,0,0,3.85-4.35,19.15,19.15,0,0,0,2.19-5.34l22,5.14a41.54,41.54,0,0,1-5,12.13,42.21,42.21,0,0,1-8.63,9.83Z"/><path class="cls-37" d="M71.63,121.2a21,21,0,0,0,2.17-2c.31-.38.62-.75,1-1.11s.55-.8.84-1.19A18.62,18.62,0,0,0,78,111.71l21.8,5.84a40.65,40.65,0,0,1-14.35,21.5Z"/><path class="cls-38" d="M71.18,121.55c.38-.31.76-.6,1.15-.89l1.06-1a9.19,9.19,0,0,0,1-1.09l.49-.54c.15-.19.27-.41.41-.6a14.06,14.06,0,0,0,.8-1.21c.23-.43.46-.84.71-1.26s.37-.89.57-1.33a4.28,4.28,0,0,0,.25-.68l.21-.69,21.61,6.53-.5,1.56a12,12,0,0,1-.57,1.55c-.42,1-.86,2-1.31,3s-1.05,1.93-1.59,2.89-1.2,1.83-1.82,2.74c-.32.45-.62.91-1,1.34l-1,1.25a28.18,28.18,0,0,1-2.21,2.42c-.79.76-1.57,1.53-2.39,2.25s-1.72,1.37-2.59,2Z"/><path class="cls-39" d="M70.72,121.87a20.25,20.25,0,0,0,4.24-4,18.77,18.77,0,0,0,2.68-5.11L99,120a41.48,41.48,0,0,1-6.14,11.59,42.75,42.75,0,0,1-9.52,9Z"/><path class="cls-40" d="M70.24,122.17a16.76,16.76,0,0,0,4.34-3.85,18.92,18.92,0,0,0,2.9-5l21.16,7.88a40.73,40.73,0,0,1-16.34,20Z"/><path class="cls-41" d="M69.77,122.47a17.19,17.19,0,0,0,4.44-3.72A20.43,20.43,0,0,0,76,116.43c.22-.43.46-.85.7-1.27s.38-.89.59-1.32l20.89,8.56c-.45,1-.83,2-1.36,3s-1.06,1.92-1.6,2.88a44.18,44.18,0,0,1-3.92,5.27,39.58,39.58,0,0,1-10.05,8.38Z"/><path class="cls-42" d="M69.28,122.76a19.92,19.92,0,0,0,4.57-3.57A18.29,18.29,0,0,0,77,114.36l20.6,9.22a40.8,40.8,0,0,1-7.2,10.93,42.19,42.19,0,0,1-10.33,8.06Z"/><path class="cls-43" d="M68.78,123l.65-.31c.21-.12.4-.27.61-.39l.61-.38.31-.19.29-.23c.37-.31.76-.6,1.15-.89s.69-.68,1-1a19.65,19.65,0,0,0,3.36-4.71l20.31,9.87a42.19,42.19,0,0,1-7.58,10.68c-.78.76-1.58,1.52-2.38,2.26s-1.72,1.36-2.59,2l-.65.5-.69.45-1.4.88c-.46.28-.93.58-1.4.85l-1.47.75Z"/><path class="cls-44" d="M68.28,123.25A16.38,16.38,0,0,0,73,120a19.19,19.19,0,0,0,2-2.16c.26-.4.54-.8.83-1.19s.46-.85.71-1.26l20,10.51c-.54,1-1,1.94-1.64,2.86s-1.24,1.81-1.88,2.7a41.36,41.36,0,0,1-4.38,4.88,39.18,39.18,0,0,1-10.81,7.4Z"/><path class="cls-45" d="M67.77,123.5a19.65,19.65,0,0,0,4.86-3.12c.34-.34.7-.68,1.06-1s.62-.76,1-1.12a12.12,12.12,0,0,0,.86-1.17l.42-.59.34-.64L95.9,127c-.27.48-.54,1-.82,1.44l-.93,1.36a26.43,26.43,0,0,1-2,2.64c-.7.83-1.41,1.67-2.14,2.48s-1.57,1.52-2.37,2.27a41.43,41.43,0,0,1-11,7.06Z"/><path class="cls-46" d="M67.24,123.69a17.64,17.64,0,0,0,5-2.93,20.16,20.16,0,0,0,3.8-4.4l19.27,11.76A42.62,42.62,0,0,1,86.74,138a40.31,40.31,0,0,1-11.29,6.69Z"/><path class="cls-47" d="M66.71,123.89a16.28,16.28,0,0,0,5-2.79,17.21,17.21,0,0,0,3.93-4.28l18.89,12.37a39.59,39.59,0,0,1-8.84,9.64,38.86,38.86,0,0,1-11.48,6.34Z"/><path class="cls-48" d="M66.18,124.09a19,19,0,0,0,5.13-2.64,17.21,17.21,0,0,0,4-4.16l18.48,13A40.65,40.65,0,0,1,73,145.6Z"/><path class="cls-49" d="M65.63,124.23a18,18,0,0,0,5.23-2.44,20,20,0,0,0,4.18-4L93.11,131.3a42.91,42.91,0,0,1-9.42,9.07,40.72,40.72,0,0,1-11.88,5.57Z"/><path class="cls-50" d="M65.09,124.38c.46-.15.94-.23,1.4-.4s.9-.35,1.35-.51a20.15,20.15,0,0,0,2.54-1.39l.62-.37.56-.46a9,9,0,0,0,1.12-.92c.35-.35.71-.68,1.06-1s.63-.76,1-1.12l17.63,14.1c-.7.84-1.42,1.67-2.14,2.49s-1.56,1.53-2.35,2.28a30,30,0,0,1-2.53,2.1l-1.31,1-1.38.89a42.65,42.65,0,0,1-5.8,3.13c-1,.4-2,.79-3.08,1.17s-2.1.62-3.16.92Z"/><path class="cls-51" d="M64.54,124.53a17.88,17.88,0,0,0,9.78-5.9l17.17,14.65a40.44,40.44,0,0,1-22.16,13.31Z"/><path class="cls-52" d="M64,124.62a18.94,18.94,0,0,0,5.45-1.93A19.44,19.44,0,0,0,74,119.06l16.71,15.18a42,42,0,0,1-10.24,8.17,41.31,41.31,0,0,1-12.34,4.41Z"/><path class="cls-53" d="M63.43,124.71c.47-.1,1-.13,1.43-.26s.93-.27,1.4-.38.9-.36,1.35-.52a3.57,3.57,0,0,0,.66-.29l.65-.33a18.1,18.1,0,0,0,4.65-3.44L89.8,135.18A40.79,40.79,0,0,1,79.28,143l-1.48.73a14.31,14.31,0,0,1-1.5.67c-1,.4-2,.79-3.09,1.16s-2.11.59-3.17.87-2.15.42-3.23.61Z"/><path class="cls-54" d="M62.87,124.81a18.77,18.77,0,0,0,5.55-1.63c.42-.23.88-.39,1.28-.66s.81-.52,1.23-.77a19.72,19.72,0,0,0,2.22-1.88l15.73,16.2a42.35,42.35,0,0,1-5,4.2c-.92.6-1.85,1.19-2.79,1.76s-1.94,1-2.92,1.53a41.64,41.64,0,0,1-12.58,3.67Z"/><path class="cls-55" d="M62.3,124.85a17.29,17.29,0,0,0,10.44-4.58L88,137a41.77,41.77,0,0,1-11,7.17,41.49,41.49,0,0,1-12.7,3.21Z"/><path class="cls-56" d="M61.73,124.89c.49-.06,1,0,1.46-.13s1-.17,1.43-.24.93-.27,1.4-.39.91-.35,1.37-.5a18.72,18.72,0,0,0,4.94-3L87,137.81a41.65,41.65,0,0,1-11.23,6.78c-1,.38-2,.82-3.1,1.11s-2.12.59-3.18.86-2.16.39-3.24.56-2.18.21-3.27.31Z"/><path class="cls-57" d="M61.17,124.94a19,19,0,0,0,5.69-1.11l.68-.25a3.23,3.23,0,0,0,.66-.29l1.3-.64c.4-.27.81-.53,1.22-.77s.76-.6,1.16-.88L86,138.6c-.87.67-1.7,1.39-2.63,2s-1.86,1.18-2.8,1.75-2,1-2.94,1.48a14.38,14.38,0,0,1-1.51.66l-1.54.59a41.57,41.57,0,0,1-12.86,2.45Z"/><path class="cls-58" d="M60.6,124.91a17.14,17.14,0,0,0,10.83-3.56l13.57,18a39.84,39.84,0,0,1-24.55,8.1Z"/><path class="cls-59" d="M60,124.9a14.24,14.24,0,0,0,1.46,0c.49,0,1-.08,1.46-.1s.95-.18,1.43-.26.94-.26,1.41-.36a19.14,19.14,0,0,0,5.2-2.48l13,18.46a41.92,41.92,0,0,1-11.83,5.68c-1.06.27-2.11.62-3.19.81s-2.16.38-3.24.55-2.18.18-3.27.26-2.19,0-3.29,0Z"/><path class="cls-60" d="M59.47,124.9a19,19,0,0,0,5.77-.56l.7-.19.36-.09.33-.14,1.36-.51c.42-.23.85-.45,1.29-.65s.81-.52,1.23-.76l12.4,18.87c-.93.57-1.84,1.2-2.82,1.71s-2,1-3,1.46-2,.81-3.07,1.2l-.77.28-.79.23-1.59.44a41.69,41.69,0,0,1-13,1.23Z"/><path class="cls-61" d="M58.9,124.82a19.13,19.13,0,0,0,5.8-.32A18.37,18.37,0,0,0,70,122.3l11.79,19.25a40.68,40.68,0,0,1-12.14,5,41.27,41.27,0,0,1-13.06.77Z"/><path class="cls-62" d="M58.34,124.76a14.22,14.22,0,0,0,1.45.14c.49,0,1,0,1.46,0s1-.09,1.45-.12,1-.17,1.44-.23a19,19,0,0,0,5.43-2l11.17,19.62a41.55,41.55,0,0,1-12.31,4.52c-1.08.18-2.16.41-3.25.51s-2.18.17-3.27.24-2.19,0-3.29-.05-2.18-.2-3.26-.31Z"/><path class="cls-63" d="M57.78,124.7a19.12,19.12,0,0,0,5.8,0,16.42,16.42,0,0,0,5.48-1.83l10.54,20A38.71,38.71,0,0,1,67.17,147a41.58,41.58,0,0,1-13.08,0Z"/><path class="cls-64" d="M57.23,124.57a18.79,18.79,0,0,0,5.8.22,18.08,18.08,0,0,0,5.53-1.68l9.9,20.29a40.66,40.66,0,0,1-12.55,3.78,41.62,41.62,0,0,1-13.08-.46Z"/><path class="cls-65" d="M56.67,124.45a11.65,11.65,0,0,0,1.43.28l1.45.17c.48,0,1,0,1.45,0s1-.08,1.46-.1a18.67,18.67,0,0,0,5.6-1.46L77.3,144a40.63,40.63,0,0,1-25.72,2.49Z"/><path class="cls-66" d="M56.12,124.35a19,19,0,0,0,5.77.53,16.86,16.86,0,0,0,5.65-1.3l8.58,20.88a39.28,39.28,0,0,1-12.76,2.94,41.51,41.51,0,0,1-13-1.23Z"/><path class="cls-67" d="M55.58,124.17a19.22,19.22,0,0,0,5.75.76A18.59,18.59,0,0,0,67,123.78l7.92,21.14a40.69,40.69,0,0,1-12.84,2.57,41.64,41.64,0,0,1-13-1.7Z"/><path class="cls-68" d="M55.05,124a18,18,0,0,0,11.43,0l7.25,21.38a40.59,40.59,0,0,1-25.84,0Z"/><path class="cls-69" d="M54.5,123.83a18.68,18.68,0,0,0,5.69,1.08,17.18,17.18,0,0,0,5.75-.76l6.56,21.6A40.79,40.79,0,0,1,46.67,145Z"/><path class="cls-70" d="M54,123.61a19.05,19.05,0,0,0,5.64,1.29,17.82,17.82,0,0,0,5.77-.61l5.87,21.8a40.8,40.8,0,0,1-13,1.35,41.68,41.68,0,0,1-12.78-2.92Z"/><path class="cls-71" d="M53.47,123.38a17.93,17.93,0,0,0,11.38,1.07l5.18,22A40.45,40.45,0,0,1,44.3,144Z"/><path class="cls-72" d="M53,123.17a18.45,18.45,0,0,0,5.55,1.61,17.39,17.39,0,0,0,5.8-.21l4.49,22.12a40.79,40.79,0,0,1-25.66-3.2Z"/><path class="cls-73" d="M52.46,122.9a18.71,18.71,0,0,0,5.48,1.82,18.21,18.21,0,0,0,5.8-.06l3.79,22.25a40.49,40.49,0,0,1-13.09.11A41.27,41.27,0,0,1,42,142.9Z"/><path class="cls-74" d="M52,122.62a17.79,17.79,0,0,0,11.21,2.14l3.08,22.36a40.39,40.39,0,0,1-25.39-4.84Z"/><path class="cls-75" d="M51.47,122.36a18.16,18.16,0,0,0,5.36,2.13,17.33,17.33,0,0,0,5.79.34L65,147.27a40.66,40.66,0,0,1-25.25-5.62Z"/><path class="cls-76" d="M51,122.05a19.43,19.43,0,0,0,5.27,2.33,18.14,18.14,0,0,0,5.78.48l1.67,22.52a40.67,40.67,0,0,1-13-1.13,41.56,41.56,0,0,1-12-5.29Z"/><path class="cls-77" d="M50.54,121.72a17.7,17.7,0,0,0,11,3.19l1,22.56a40.33,40.33,0,0,1-24.83-7.24Z"/><path class="cls-78" d="M50.07,121.4a18.09,18.09,0,0,0,10.85,3.53l.25,22.57a40.71,40.71,0,0,1-24.6-8Z"/><path class="cls-79" d="M49.62,121.06a19.38,19.38,0,0,0,5,2.82,17.5,17.5,0,0,0,5.69,1l-.46,22.57A40,40,0,0,1,47,145.12a41.7,41.7,0,0,1-11.45-6.4Z"/><path class="cls-80" d="M49.19,120.68a17.68,17.68,0,0,0,10.6,4.22l-1.17,22.55a41.69,41.69,0,0,1-12.8-2.79,39.38,39.38,0,0,1-11.23-6.76Z"/><path class="cls-81" d="M48.76,120.32a16.81,16.81,0,0,0,4.86,3.12,16.63,16.63,0,0,0,5.6,1.42l-1.88,22.5a40.6,40.6,0,0,1-23.72-10.3Z"/><path class="cls-82" d="M48.33,119.94a20.1,20.1,0,0,0,4.77,3.29,17.27,17.27,0,0,0,5.56,1.56l-2.59,22.43a39.76,39.76,0,0,1-12.61-3.58,42.06,42.06,0,0,1-10.78-7.44Z"/><path class="cls-83" d="M48,119.52A17.24,17.24,0,0,0,52.6,123a18.83,18.83,0,0,0,5.49,1.75L54.8,147.07a41.46,41.46,0,0,1-12.49-4c-1-.52-1.92-1.06-2.88-1.6s-1.81-1.23-2.71-1.87l-.67-.47-.63-.53-1.25-1.06-1.24-1.08-1.14-1.17Z"/><path class="cls-84" d="M47.55,119.11a17.94,17.94,0,0,0,10,5.53l-4,22.22a40.54,40.54,0,0,1-22.63-12.49Z"/><path class="cls-85" d="M47.15,118.7a20.06,20.06,0,0,0,4.46,3.73A16.74,16.74,0,0,0,57,124.52l-4.7,22.08a39.32,39.32,0,0,1-12.22-4.77,42.61,42.61,0,0,1-10-8.4Z"/><path class="cls-86" d="M46.81,118.25a18.38,18.38,0,0,0,4.32,3.89,19,19,0,0,0,5.3,2.27L51,146.33A41.46,41.46,0,0,1,39,141.16a40.52,40.52,0,0,1-9.73-8.73Z"/><path class="cls-87" d="M46.47,117.8l.44.58a3.49,3.49,0,0,0,.47.56c.34.34.68.69,1,1.06a19.68,19.68,0,0,0,2.28,1.81,17.18,17.18,0,0,0,5.21,2.46L49.8,146a39.87,39.87,0,0,1-11.88-5.57,42.17,42.17,0,0,1-5.11-4.11c-.77-.78-1.53-1.57-2.27-2.36a14.11,14.11,0,0,1-1.07-1.25l-1-1.3Z"/><path class="cls-88" d="M46.11,117.37a18.11,18.11,0,0,0,9.24,6.72l-6.78,21.53a39.32,39.32,0,0,1-11.7-5.91,41.84,41.84,0,0,1-9.19-9.31Z"/><path class="cls-89" d="M45.81,116.89a17.71,17.71,0,0,0,9,7l-7.45,21.31A40.19,40.19,0,0,1,27,129.33Z"/><path class="cls-90" d="M45.51,116.41a20.56,20.56,0,0,0,1.69,2.35c.35.35.69.7,1,1.06a3.15,3.15,0,0,0,.54.49l.56.48a17.57,17.57,0,0,0,5,2.95L46.15,144.8a40.3,40.3,0,0,1-11.29-6.67l-1.24-1.07a12.72,12.72,0,0,1-1.2-1.12c-.76-.78-1.51-1.57-2.26-2.37a43,43,0,0,1-3.87-5.32Z"/><path class="cls-91" d="M45.21,115.94a18.3,18.3,0,0,0,3.67,4.48,16.52,16.52,0,0,0,4.89,3.09L45,144.3a39.16,39.16,0,0,1-11.08-7,41.39,41.39,0,0,1-8.28-10.14Z"/><path class="cls-92" d="M45,115.44a19.72,19.72,0,0,0,3.49,4.62,20.08,20.08,0,0,0,4.81,3.23l-9.46,20.5A40.16,40.16,0,0,1,25,126Z"/><path class="cls-93" d="M44.7,114.93a16.37,16.37,0,0,0,3.36,4.71,18.6,18.6,0,0,0,4.67,3.42l-10.1,20.18A40.94,40.94,0,0,1,32,135.55a39.18,39.18,0,0,1-7.61-10.67Z"/><path class="cls-94" d="M44.44,114.43a17.38,17.38,0,0,0,3.22,4.79l.51.54a3.08,3.08,0,0,0,.52.5q.57.46,1.11,1a21.59,21.59,0,0,0,2.45,1.56L41.5,142.63A42.58,42.58,0,0,1,36,139.07c-.84-.7-1.68-1.41-2.5-2.13a14.08,14.08,0,0,1-1.19-1.13l-1.13-1.18a40.09,40.09,0,0,1-7.29-10.9Z"/><path class="cls-95" d="M44.22,113.91a17.71,17.71,0,0,0,7.53,8.6L40.38,142a40.17,40.17,0,0,1-17-19.46Z"/><path class="cls-96" d="M44,113.39a18,18,0,0,0,7.23,8.84l-12,19.14a42.22,42.22,0,0,1-9.8-8.66,39,39,0,0,1-6.56-11.35Z"/><path class="cls-97" d="M43.82,112.86a17.18,17.18,0,0,0,2.74,5.07,21,21,0,0,0,1.94,2.18c.38.3.76.62,1.12,1a3.48,3.48,0,0,0,.58.43l.6.41L38.22,140.65l-1.36-.94a12.8,12.8,0,0,1-1.3-1q-1.26-1.05-2.49-2.13a42.34,42.34,0,0,1-4.39-4.88,39.54,39.54,0,0,1-6.22-11.54Z"/><path class="cls-98" d="M43.65,112.32a19,19,0,0,0,2.56,5.17,18.22,18.22,0,0,0,4.13,4.09L37.16,139.92a41,41,0,0,1-9.26-9.23,41.49,41.49,0,0,1-5.83-11.75Z"/><path class="cls-99" d="M43.51,111.78A16.8,16.8,0,0,0,45.89,117a20.26,20.26,0,0,0,4,4.25L36.12,139.18a42.7,42.7,0,0,1-8.95-9.54,39.63,39.63,0,0,1-5.45-11.94Z"/><path class="cls-100" d="M43.35,111.23a16.88,16.88,0,0,0,2.25,5.31,16.59,16.59,0,0,0,3.84,4.35l-14.3,17.47a40.55,40.55,0,0,1-13.75-21.89Z"/><path class="cls-101" d="M43.23,110.68a19,19,0,0,0,2.06,5.39A17.23,17.23,0,0,0,49,120.52l-14.84,17-1.24-1.07-1.14-1.18-1.13-1.19-.56-.59-.52-.65c-.68-.86-1.35-1.72-2-2.6s-1.19-1.85-1.77-2.78a41.35,41.35,0,0,1-4.68-12.25Z"/><path class="cls-102" d="M43.14,110.12A17.41,17.41,0,0,0,45,115.58a19.4,19.4,0,0,0,3.56,4.58L33.2,136.7a42.41,42.41,0,0,1-8-10.35A39.91,39.91,0,0,1,20.89,114Z"/><path class="cls-103" d="M43,109.56a16.92,16.92,0,0,0,1.73,5.52,16.68,16.68,0,0,0,3.39,4.67L32.29,135.81A40.46,40.46,0,0,1,20.68,112.7Z"/><path class="cls-104" d="M43,109a17.73,17.73,0,0,0,4.8,10.34L31.41,134.89A39.36,39.36,0,0,1,24,124.06a41.62,41.62,0,0,1-3.51-12.63Z"/><path class="cls-105" d="M42.93,108.43a17.51,17.51,0,0,0,1.35,5.63,18.73,18.73,0,0,0,3.1,4.87L30.53,134a41.6,41.6,0,0,1-7-11.07,40.09,40.09,0,0,1-3.08-12.73Z"/><path class="cls-106" d="M42.88,107.87a17,17,0,0,0,1.2,5.66,17.39,17.39,0,0,0,2.92,5L29.69,133a40.75,40.75,0,0,1-9.36-24.12Z"/><path class="cls-107" d="M42.86,107.3a17.77,17.77,0,0,0,3.8,10.76L28.9,132a40.34,40.34,0,0,1-8.61-24.38Z"/><path class="cls-108" d="M42.88,106.74a18,18,0,0,0,.81,5.74,19,19,0,0,0,2.62,5.13L28.12,131a41.29,41.29,0,0,1-5.95-11.7,40.09,40.09,0,0,1-1.86-13Z"/><path class="cls-109" d="M42.89,106.17a17,17,0,0,0,.66,5.76A17.92,17.92,0,0,0,46,117.16l-18.6,12.78a40.61,40.61,0,0,1-7-24.89Z"/><path class="cls-110" d="M42.92,105.6a17.8,17.8,0,0,0,2.76,11.08l-19,12.18a40.36,40.36,0,0,1-6.26-25.08Z"/><path class="cls-111" d="M43,105a17.93,17.93,0,0,0,.26,5.8,18.72,18.72,0,0,0,2.13,5.36L26,127.77a41.31,41.31,0,0,1-4.81-12.2,40.63,40.63,0,0,1-.62-13.06Z"/><path class="cls-112" d="M43.05,104.48a16.87,16.87,0,0,0,.12,5.8,18.14,18.14,0,0,0,1.91,5.45L25.34,126.67a40.72,40.72,0,0,1-4.63-25.43Z"/><path class="cls-113" d="M43.13,103.92a17.93,17.93,0,0,0,1.71,11.3L24.76,125.53A40.48,40.48,0,0,1,20.91,100Z"/><path class="cls-114" d="M43.26,103.37a17.86,17.86,0,0,0-.28,5.79,18.51,18.51,0,0,0,1.61,5.56l-20.4,9.66a40,40,0,0,1-3-25.66Z"/><path class="cls-115" d="M43.37,102.81a17,17,0,0,0-.43,5.78,18.32,18.32,0,0,0,1.39,5.62l-20.7,9a40.88,40.88,0,0,1-2.19-25.75Z"/><path class="cls-116" d="M43.51,102.26a17.94,17.94,0,0,0,.63,11.42l-21,8.35a40.53,40.53,0,0,1-1.42-25.8Z"/><path class="cls-117" d="M43.69,101.73a17.87,17.87,0,0,0-.83,5.73,18.69,18.69,0,0,0,1.08,5.7l-21.23,7.67A41.54,41.54,0,0,1,20.29,108a40.7,40.7,0,0,1,1.85-13Z"/><path class="cls-118" d="M43.85,101.19a16.71,16.71,0,0,0-1,5.71,18.55,18.55,0,0,0,.85,5.73l-21.46,7a41.51,41.51,0,0,1-2-12.94,39.45,39.45,0,0,1,2.23-12.9Z"/><path class="cls-119" d="M44,100.66a19.19,19.19,0,0,0-1.14,5.67c0,.48-.06,1,0,1.46s.09,1,.11,1.45.18,1,.25,1.44a13.69,13.69,0,0,0,.36,1.4L21.92,118.4a40.57,40.57,0,0,1,1-25.82Z"/><path class="cls-120" d="M44.27,100.14a18.08,18.08,0,0,0-1.37,5.62,19.05,19.05,0,0,0,.54,5.78l-21.86,5.63a41.46,41.46,0,0,1-1.2-13A40.89,40.89,0,0,1,23.45,91.4Z"/><path class="cls-121" d="M44.49,99.62A16.59,16.59,0,0,0,43,105.2a19.16,19.16,0,0,0,.31,5.8l-22,4.93a41.55,41.55,0,0,1-.73-13.06A39,39,0,0,1,24,90.22Z"/><path class="cls-122" d="M44.71,99.11A18.93,18.93,0,0,0,43,104.64c0,.48-.15,1-.15,1.44s0,1,0,1.46.09,1,.12,1.46a14.32,14.32,0,0,0,.22,1.44L21,114.67c-.17-1.08-.42-2.15-.5-3.25s-.17-2.18-.24-3.27,0-2.19.06-3.29.21-2.18.33-3.27A41.27,41.27,0,0,1,24.5,89.06Z"/><path class="cls-123" d="M45,98.62a18.38,18.38,0,0,0-1.89,5.45,18.87,18.87,0,0,0,0,5.81l-22.3,3.53a41.58,41.58,0,0,1,0-13.08,41,41,0,0,1,4.28-12.4Z"/><path class="cls-124" d="M45.26,98.13c-.21.43-.5.83-.68,1.27s-.37.89-.58,1.33l-.44,1.38-.12.34-.06.36-.15.71a18.81,18.81,0,0,0-.24,5.8l-22.4,2.83a41.92,41.92,0,0,1,.5-13.08l.35-1.6.18-.81.24-.78c.33-1,.65-2.1,1-3.13s.86-2,1.3-3,1-2,1.55-2.91Z"/><path class="cls-125" d="M45.53,97.63A19.46,19.46,0,0,0,43.34,103c-.07.48-.24.94-.28,1.42s-.1,1-.18,1.45,0,1,0,1.46.08,1,.09,1.45l-22.47,2.13c-.07-1.1-.21-2.19-.19-3.28s0-2.19.07-3.28.24-2.18.37-3.27.42-2.15.63-3.23a41.54,41.54,0,0,1,5-12.13Z"/><path class="cls-126" d="M45.86,97.17a17.37,17.37,0,0,0-3,11L20.38,109.6a41.44,41.44,0,0,1,1.27-13,41,41,0,0,1,5.44-11.94Z"/><path class="cls-127" d="M46.18,96.71c-.25.41-.59.77-.8,1.2s-.46.85-.71,1.27-.37.89-.57,1.33a3,3,0,0,0-.24.68l-.22.69a18.81,18.81,0,0,0-.78,5.74l-22.57.71a41.38,41.38,0,0,1,1.74-13l.5-1.57a12.4,12.4,0,0,1,.57-1.54c.42-1,.86-2,1.31-3s1.05-1.93,1.59-2.88,1.21-1.84,1.82-2.75Z"/><path class="cls-128" d="M46.5,96.24a18.47,18.47,0,0,0-2.69,5.1c-.12.47-.34.91-.42,1.39s-.2,1-.31,1.42-.09,1-.16,1.45,0,1-.05,1.46H20.3c0-1.09,0-2.19.12-3.28s.24-2.18.38-3.26.44-2.15.68-3.22.62-2.11.94-3.16a40.83,40.83,0,0,1,6.14-11.59Z"/><path class="cls-129" d="M46.87,95.81a17.23,17.23,0,0,0-4,10.68l-22.56-.72a39.85,39.85,0,0,1,9-24.22Z"/><path class="cls-130" d="M47.24,95.38a20.72,20.72,0,0,0-1.75,2.32c-.22.43-.45.85-.7,1.27s-.38.89-.59,1.32a18.64,18.64,0,0,0-1.31,5.63L20.36,104.5a41,41,0,0,1,2.95-12.77c.45-1,.83-2,1.36-3s1.06-1.93,1.6-2.88a44.18,44.18,0,0,1,3.92-5.27Z"/><path class="cls-131" d="M47.6,94.94a18.13,18.13,0,0,0-3.18,4.83l-.28.66a2.81,2.81,0,0,0-.26.68c-.14.46-.3.92-.44,1.38s-.19,1-.3,1.42-.11,1-.19,1.45l-22.47-2.14c.13-1.08.21-2.18.43-3.25s.45-2.15.69-3.22.65-2.1,1-3.14a11.88,11.88,0,0,1,.58-1.54l.65-1.52A40.64,40.64,0,0,1,31,79.61Z"/><path class="cls-132" d="M48,94.53a19.91,19.91,0,0,0-3.36,4.72A18.4,18.4,0,0,0,43,104.79L20.62,102a40.83,40.83,0,0,1,3.72-12.57A42.15,42.15,0,0,1,31.91,78.7Z"/><path class="cls-133" d="M48.42,94.14a17.89,17.89,0,0,0-5.35,10.09l-22.29-3.55a40.48,40.48,0,0,1,12-22.87Z"/><path class="cls-134" d="M48.83,93.74c-.35.35-.7.68-1.07,1s-.62.75-.95,1.12A10.07,10.07,0,0,0,46,97l-.42.59-.34.64A18.9,18.9,0,0,0,44,100.88c-.14.46-.28.92-.44,1.38s-.2.95-.32,1.42L21,99.43c.24-1.07.43-2.16.74-3.21s.65-2.09,1-3.14a41.46,41.46,0,0,1,2.8-6c.27-.48.53-1,.81-1.43l.93-1.36a30,30,0,0,1,1.95-2.64c.7-.84,1.41-1.67,2.14-2.48s1.57-1.53,2.37-2.28Z"/><path class="cls-135" d="M49.25,93.37a20.16,20.16,0,0,0-3.8,4.4,18.12,18.12,0,0,0-2.14,5.35l-22-4.94A40.34,40.34,0,0,1,26.19,86a42.64,42.64,0,0,1,8.53-9.92Z"/><path class="cls-136" d="M49.7,93a17.17,17.17,0,0,0-3.93,4.27,18.89,18.89,0,0,0-2.35,5.27L21.56,96.93A40.59,40.59,0,0,1,35.72,75.3Z"/><path class="cls-137" d="M50.14,92.68a17.4,17.4,0,0,0-4,4.16,16.5,16.5,0,0,0-2.5,5.19L21.92,95.7a38.8,38.8,0,0,1,5.69-11.82,40,40,0,0,1,9.12-9.37Z"/><path class="cls-138" d="M50.59,92.33a20.52,20.52,0,0,0-4.18,4,17.57,17.57,0,0,0-2.65,5.12l-21.45-7a40.07,40.07,0,0,1,6-11.64,42.25,42.25,0,0,1,9.42-9.07Z"/><path class="cls-139" d="M51.07,92l-.61.38-.57.46a9,9,0,0,0-1.12.92c-.35.35-.71.67-1.06,1s-.62.75-1,1.12a19.62,19.62,0,0,0-2.84,5L22.7,93.26a41.53,41.53,0,0,1,6.43-11.43c.71-.84,1.42-1.67,2.14-2.49s1.56-1.53,2.36-2.28A28.46,28.46,0,0,1,36.16,75l1.3-1c.46-.31.92-.6,1.39-.89Z"/><path class="cls-140" d="M51.55,91.74c-.4.28-.83.49-1.22.78s-.75.61-1.14.9a17.51,17.51,0,0,0-2,2.08,16.36,16.36,0,0,0-3,4.93l-21-8.37A39.14,39.14,0,0,1,30,80.85a40.48,40.48,0,0,1,4.62-4.64c.85-.69,1.72-1.36,2.59-2S39,73,39.93,72.38Z"/><path class="cls-141" d="M52,91.44a19.61,19.61,0,0,0-4.52,3.62q-.47.57-1,1.11c-.26.4-.53.81-.82,1.2l-.21.29-.17.32-.35.64c-.11.21-.24.41-.35.63l-.28.67-20.69-9,.67-1.51c.24-.49.51-1,.77-1.45l.81-1.44.4-.72.46-.68c.62-.9,1.25-1.81,1.89-2.7s1.4-1.67,2.12-2.5A42.22,42.22,0,0,1,41,71.72Z"/><path class="cls-142" d="M52.53,91.2a18.1,18.1,0,0,0-4.65,3.44,19.88,19.88,0,0,0-3.3,4.76L24.19,89.71A42.1,42.1,0,0,1,31.65,79a40.79,40.79,0,0,1,10.52-7.81Z"/><path class="cls-143" d="M53,90.94c-.42.24-.89.4-1.29.67s-.81.52-1.23.77a20.73,20.73,0,0,0-2.22,1.87,17.44,17.44,0,0,0-3.47,4.65L24.76,88.56a39.75,39.75,0,0,1,7.81-10.5,43.16,43.16,0,0,1,5-4.2Q39,73,40.4,72.09c.93-.58,1.94-1,2.92-1.52Z"/><path class="cls-144" d="M53.53,90.68a19.46,19.46,0,0,0-4.82,3.18,17,17,0,0,0-3.6,4.55l-19.73-11A40.75,40.75,0,0,1,44.47,70Z"/><path class="cls-145" d="M54.07,90.49a18.88,18.88,0,0,0-5,3,20.38,20.38,0,0,0-3.74,4.45L26,86.32a42.78,42.78,0,0,1,8.42-10,41.3,41.3,0,0,1,11.24-6.78Z"/><path class="cls-146" d="M54.59,90.29l-.68.26a3.19,3.19,0,0,0-.66.28c-.43.23-.86.44-1.3.64s-.8.53-1.22.78-.76.6-1.16.87c-.18.16-.39.28-.57.45l-.52.51a9.19,9.19,0,0,0-1,1l-1,1.12c-.27.4-.54.8-.82,1.19l-19-12.2c.62-.91,1.24-1.81,1.88-2.7S30,80.85,30.67,80A29.86,29.86,0,0,1,33,77.68l1.19-1.12c.41-.37.85-.69,1.28-1,.87-.66,1.7-1.38,2.64-2s1.85-1.18,2.79-1.75,2-1,3-1.49a12.71,12.71,0,0,1,1.51-.65l1.53-.59Z"/><path class="cls-147" d="M55.12,90.08a18.49,18.49,0,0,0-5.1,2.7c-.37.31-.79.56-1.14.9s-.69.69-1.06,1A19.77,19.77,0,0,0,46,97L27.4,84.18A40.57,40.57,0,0,1,48.07,68.64Z"/><path class="cls-148" d="M55.66,89.94a19,19,0,0,0-5.2,2.48,19.58,19.58,0,0,0-4.14,4.09L28.14,83.12A42.45,42.45,0,0,1,37.47,74a41.47,41.47,0,0,1,11.82-5.68Z"/><path class="cls-149" d="M56.21,89.79l-.7.19-.36.09-.33.13-1.36.52c-.42.23-.85.44-1.29.65s-.81.52-1.23.76a18.55,18.55,0,0,0-4.29,3.92L28.9,82.1a41.61,41.61,0,0,1,9.64-8.84c.94-.58,1.84-1.2,2.82-1.71s2-1,3-1.47,2-.8,3.07-1.19l.77-.29.79-.22,1.59-.44Z"/><path class="cls-150" d="M56.75,89.63a18.19,18.19,0,0,0-5.33,2.2l-.62.38-.31.18-.28.23c-.38.31-.76.6-1.15.89s-.7.69-1.05,1l-.28.25-.23.28-.47.56L29.72,81.13l1.07-1.25.54-.62.59-.57c.78-.76,1.57-1.51,2.37-2.26s1.72-1.36,2.59-2l.66-.5.69-.44,1.4-.88a40.86,40.86,0,0,1,12.14-5Z"/><path class="cls-151" d="M57.31,89.54a19,19,0,0,0-5.42,2,18.57,18.57,0,0,0-4.49,3.67l-16.85-15A40,40,0,0,1,53,67.37Z"/><path class="cls-152" d="M57.87,89.44a17.92,17.92,0,0,0-10.11,5.31L31.4,79.2a40.54,40.54,0,0,1,22.88-12Z"/><path class="cls-153" d="M58.43,89.34A18.06,18.06,0,0,0,52.89,91a18.78,18.78,0,0,0-2.49,1.45c-.38.31-.76.61-1.15.9s-.7.67-1.07,1l-15.87-16c.8-.75,1.56-1.54,2.41-2.22s1.73-1.36,2.6-2A42,42,0,0,1,43,70.73a41,41,0,0,1,12.54-3.79Z"/><path class="cls-154" d="M59,89.29a19,19,0,0,0-5.6,1.47A17.72,17.72,0,0,0,48.6,94L33.23,77.43a40.74,40.74,0,0,1,10.92-7.27,41.67,41.67,0,0,1,12.66-3.34Z"/><path class="cls-155" d="M59.56,89.25A17.85,17.85,0,0,0,49,93.57l-14.84-17a40.53,40.53,0,0,1,23.93-9.83Z"/><path class="cls-156" d="M60.12,89.2a18,18,0,0,0-5.68,1.15,16.47,16.47,0,0,0-5,2.87L35.15,75.75a39.12,39.12,0,0,1,11.38-6.54,40.57,40.57,0,0,1,12.83-2.57Z"/><path class="cls-157" d="M60.69,89.21a18.82,18.82,0,0,0-5.72.93,17.68,17.68,0,0,0-5.08,2.73L36.16,75a39.77,39.77,0,0,1,11.57-6.2,41.39,41.39,0,0,1,12.91-2.13Z"/><path class="cls-158" d="M61.26,89.22a17.86,17.86,0,0,0-10.93,3.3L37.18,74.18a40.43,40.43,0,0,1,24.74-7.52Z"/><path class="cls-159" d="M61.83,89.22a18.42,18.42,0,0,0-5.78.61,16.85,16.85,0,0,0-5.25,2.38L38.24,73.45A39,39,0,0,1,50.18,68a40.55,40.55,0,0,1,13-1.35Z"/><path class="cls-160" d="M62.39,89.28a19.08,19.08,0,0,0-5.79.4,17.33,17.33,0,0,0-5.32,2.23l-12-19.14a39.88,39.88,0,0,1,12.1-5.07,41.8,41.8,0,0,1,13-.9Z"/><path class="cls-161" d="M63,89.35a17.84,17.84,0,0,0-11.2,2.26L40.41,72.09A40.43,40.43,0,0,1,65.74,67Z"/><path class="cls-162" d="M63.52,89.41a17.7,17.7,0,0,0-5.81.06,16.9,16.9,0,0,0-5.46,1.86L41.53,71.47a39.41,39.41,0,0,1,12.4-4.26A40.71,40.71,0,0,1,67,67.1Z"/><path class="cls-163" d="M64.07,89.52a18.8,18.8,0,0,0-5.8-.15,16.91,16.91,0,0,0-5.52,1.72L42.67,70.89A39.73,39.73,0,0,1,55.19,67a41.54,41.54,0,0,1,13.07.34Z"/><path class="cls-164" d="M64.62,89.64a17.86,17.86,0,0,0-11.37,1.19L43.82,70.32a40.55,40.55,0,0,1,25.7-2.72Z"/><path class="cls-165" d="M65.18,89.75a17.87,17.87,0,0,0-5.78-.49,17.24,17.24,0,0,0-5.63,1.34L45,69.8a40.87,40.87,0,0,1,25.78-1.92Z"/><path class="cls-166" d="M65.72,89.91a19.24,19.24,0,0,0-5.76-.7,17.1,17.1,0,0,0-5.66,1.2L46.19,69.34A39.67,39.67,0,0,1,59,66.66a41.4,41.4,0,0,1,13,1.57Z"/><path class="cls-167" d="M66.25,90.09a17.82,17.82,0,0,0-11.43.11L47.39,68.89a40.42,40.42,0,0,1,25.83-.28Z"/><path class="cls-168" d="M66.79,90.25A18.34,18.34,0,0,0,55.35,90L48.6,68.48A40.81,40.81,0,0,1,74.44,69Z"/><path class="cls-169" d="M67.32,90.46a18.81,18.81,0,0,0-5.65-1.24,17.52,17.52,0,0,0-5.77.65L49.83,68.13a39.7,39.7,0,0,1,13-1.45,41.4,41.4,0,0,1,12.79,2.79Z"/><path class="cls-170" d="M67.83,90.68a17.85,17.85,0,0,0-11.38-1L51.07,67.8a41.46,41.46,0,0,1,13-1A39.49,39.49,0,0,1,76.82,70Z"/><path class="cls-171" d="M68.35,90.9a17.28,17.28,0,0,0-5.56-1.57,17.67,17.67,0,0,0-5.8.26L52.31,67.5a40.74,40.74,0,0,1,25.68,3Z"/><path class="cls-172" d="M68.85,91.15a18.85,18.85,0,0,0-5.49-1.76,17.18,17.18,0,0,0-5.81.11l-4-22.22a39.61,39.61,0,0,1,13.08-.22,41.72,41.72,0,0,1,12.49,4Z"/><path class="cls-173" d="M69.34,91.43a16.74,16.74,0,0,0-5.43-2,19.11,19.11,0,0,0-5.8-.08L54.83,67.06a41.89,41.89,0,0,1,13.08.2,39.42,39.42,0,0,1,12.35,4.41Z"/><path class="cls-174" d="M69.84,91.7a16.77,16.77,0,0,0-5.37-2.09,17.92,17.92,0,0,0-5.8-.3L56.1,66.88a40.36,40.36,0,0,1,13.06.65A39.08,39.08,0,0,1,81.38,72.3Z"/><path class="cls-175" d="M70.32,92a17.75,17.75,0,0,0-11.08-2.71l-1.87-22.5a39.49,39.49,0,0,1,13,1A41.6,41.6,0,0,1,82.48,73Z"/><path class="cls-176" d="M70.78,92.32a17.07,17.07,0,0,0-5.21-2.46,19,19,0,0,0-5.77-.63L58.64,66.68a41.7,41.7,0,0,1,13,1.44,39.75,39.75,0,0,1,11.88,5.57Z"/><path class="cls-177" d="M71.25,92.63A16.42,16.42,0,0,0,66.1,90a17.61,17.61,0,0,0-5.73-.84l-.45-22.58a40.73,40.73,0,0,1,13,1.88,39.11,39.11,0,0,1,11.7,5.92Z"/><path class="cls-178" d="M71.71,93a17.86,17.86,0,0,0-10.77-3.75l.26-22.57A39.22,39.22,0,0,1,74.1,68.9a41.43,41.43,0,0,1,11.51,6.28Z"/><path class="cls-179" d="M72.14,93.34a17.52,17.52,0,0,0-5-3,19.16,19.16,0,0,0-5.66-1.17l1-22.55A41.53,41.53,0,0,1,75.3,69.33,40.3,40.3,0,0,1,86.59,76Z"/><path class="cls-180" d="M72.57,93.71a16.47,16.47,0,0,0-4.88-3.09,18,18,0,0,0-5.62-1.38l1.68-22.51a40.32,40.32,0,0,1,12.73,3.1,38.8,38.8,0,0,1,11.08,7Z"/><path class="cls-181" d="M73,94.07a18,18,0,0,0-10.38-4.76L65,66.87a39.05,39.05,0,0,1,12.64,3.47,41.77,41.77,0,0,1,10.86,7.33Z"/><rect class="cls-3" x="53.25" y="87.89" width="50.46" height="2.5" transform="translate(-40.07 82.13) rotate(-45.25)"/></svg>